<?xml version="1.0" encoding="UTF-8" standalone="no" ?>
<!DOCTYPE svg PUBLIC "-//W3C//DTD SVG 1.1//EN" "http://www.w3.org/Graphics/SVG/1.1/DTD/svg11.dtd">
<svg xmlns="http://www.w3.org/2000/svg" xmlns:xlink="http://www.w3.org/1999/xlink" version="1.1" width="1280" height="583.6721322306092" viewBox="0 0 1280 583.6721322306092" xml:space="preserve">
<desc>Created with Fabric.js 5.3.0</desc>
<defs>
</defs>
<g transform="matrix(1 0 0 1 640 291.8360661153046)" id="background-logo"  >
<rect style="stroke: none; stroke-width: 0; stroke-dasharray: none; stroke-linecap: butt; stroke-dashoffset: 0; stroke-linejoin: miter; stroke-miterlimit: 4; fill: rgb(255,255,255); fill-opacity: 0; fill-rule: nonzero; opacity: 1;"  paint-order="stroke"  x="-646.1232604373758" y="-516.8986083499007" rx="0" ry="0" width="1292.2465208747517" height="1033.7972166998013" />
</g>
<g transform="matrix(1.988071570576541 0 0 1.988071570576541 639.6846699777589 183.10751814431887)" id="logo-logo"  >
<g style=""  paint-order="stroke"   >
		<g transform="matrix(0.10348660856920494 0 0 0.10348660856920494 0 -12.079332898349179)"  >
<linearGradient id="SVGID_1_102369" gradientUnits="userSpaceOnUse" gradientTransform="matrix(1 0 0 1 0 0)"  x1="826.7766724" y1="1537.2115479" x2="2157.2114258" y2="645.0376587">
<stop offset="11.557789999999999%" style="stop-color:rgb(137,95,27);stop-opacity: 1"/>
<stop offset="34.17085%" style="stop-color:rgb(186,134,42);stop-opacity: 1"/>
<stop offset="52.51255999999999%" style="stop-color:rgb(119,84,21);stop-opacity: 1"/>
<stop offset="75.8794%" style="stop-color:rgb(165,119,27);stop-opacity: 1"/>
<stop offset="100%" style="stop-color:rgb(119,84,21);stop-opacity: 1"/>
</linearGradient>
<path style="stroke: none; stroke-width: 1; stroke-dasharray: none; stroke-linecap: butt; stroke-dashoffset: 0; stroke-linejoin: miter; stroke-miterlimit: 4; fill: url(#SVGID_1_102369); fill-rule: evenodd; opacity: 1;"  paint-order="stroke"  transform=" translate(-1499.99999995, -1087.7763672)" d="M 1987.4217529 1687.4187012 C 1986.7009277 1665.5616455 1984.0258789 1640.3056641 1977.3323974 1615.3826905 C 2121.1440429 1485.1939698 2211.4973144 1297.0416260000002 2211.4973144 1087.7763673 C 2211.4973144 694.8271485 1892.9492187 376.27819839999995 1499.9999999000001 376.27819839999995 C 1121.2962645000002 376.27819839999995 811.7457885000001 672.1626282999999 789.7960204000002 1045.3580324 C 772.3624877000002 1066.4733888 746.9264525000002 1105.8249513 731.4075927000002 1168.4870607 C 728.6538085000002 1141.9569093 727.2236327000003 1115.0343019 727.2236327000003 1087.7763673 C 727.2236328 660.9838257 1073.2073975 315 1500 315 C 1926.7926025 315 2272.7763672 660.9838257 2272.7763672 1087.7763672 C 2272.7763672 1329.7545166 2161.5285645 1545.7219238 1987.4217529 1687.4187012 z M 1064.7791748 1650.6253662 C 1179.2095947 1739.2371825999999 1321.3792724999998 1793.7137450999999 1476.0637207 1798.8294678 C 1496.7756348 1814.1715088 1520.8950195 1835.1275635 1538.2545166 1859.6047363999999 C 1525.5789795 1860.2227784 1512.8284912 1860.5527344 1500 1860.5527344 C 1379.2871094 1860.5527344 1265.0499268 1832.857544 1163.2664795 1783.5021973 C 1127.8376465 1745.6140137 1086.4368896 1695.9033203 1064.7791748 1650.6253662 z" stroke-linecap="round" />
</g>
		<g transform="matrix(0.10348660856920494 0 0 0.10348660856920494 0.002817086586901496 -12.079332903523579)"  >
<linearGradient id="SVGID_2_102370" gradientUnits="userSpaceOnUse" gradientTransform="matrix(1 0 0 1 0 0)"  x1="2216.5830078" y1="1735.0957031" x2="929.9743042" y2="529.8783569">
<stop offset="0%" style="stop-color:rgb(255,221,125);stop-opacity: 1"/>
<stop offset="48.24121%" style="stop-color:rgb(255,221,125);stop-opacity: 0.4"/>
<stop offset="100%" style="stop-color:rgb(255,221,125);stop-opacity: 0.7"/>
</linearGradient>
<path style="stroke: none; stroke-width: 1; stroke-dasharray: none; stroke-linecap: butt; stroke-dashoffset: 0; stroke-linejoin: miter; stroke-miterlimit: 4; fill: url(#SVGID_2_102370); fill-rule: nonzero; opacity: 1;"  paint-order="stroke"  transform=" translate(-1500.0272217000002, -1087.77636715)" d="M 737.2780762 1078.8927002 C 738.4050904 979.0529785 758.5344239 882.1982422000001 797.1621094 790.8725586 C 835.5800782 700.0429688 890.5805664 618.4672852000001 960.6357422 548.4121094000001 C 1030.690918 478.35693360000005 1112.2666016 423.3564453000001 1203.0961914 384.93847660000006 C 1297.128418 345.1660156 1397.0214844 325 1500 325 C 1602.9785156 325 1702.8720703 345.1660156 1796.9042969 384.9384766 C 1887.7333985 423.3564454 1969.3095703 478.3569336 2039.3642578 548.4121094 C 2054.869873 563.9176636 2069.6347656 579.9900513 2083.6486815999997 596.5997924999999 C 1902.9191895 400.8964233 1573.4086914 282.743103 1242 412 C 1196.4822998 429.7529297 1154.8632812 451.6268311 1116.8046875 476.56610109999997 C 994.3120117 553.5281983 896.2941895 666.3314209 837.9313354000001 800.680542 C 781.8602295 910.513916 751.9388428 1015.105835 737.2780762 1078.8927002 z M 1169.3012695 1775.3115234 C 1219.5517578 1799.5263671999999 1272.53125 1818.1904296 1326.7973633 1830.7949217999999 C 1383.2421875 1843.9052734 1441.515625 1850.5527342999999 1500 1850.5527342999999 C 1505.9902344 1850.5527342999999 1512.0732422 1850.4785155 1518.2070312 1850.3300780999998 C 1518.2070312 1850.3300780999998 1253.1923828000001 1814.7167968999997 1097.0961914 1686.3583983999997 C 1118.9541016 1718.9365234 1146.6484375 1751 1169.3012695 1775.3115234 z M 2202.8378906 790.8725586 C 2202.7392578 790.6395264 2202.6369628999996 790.4086914000001 2202.5380858999997 790.1757813 C 2204.7954100999996 796.7779542000001 2206.8994139999995 803.400879 2208.8261718 810.0434571000001 C 2284.3645019 1070.4423829 2220.2087401999997 1389.4621583 2069.8535156 1594.7495118000002 C 2079.4206543 1584.0075684 2088.6914061999996 1573.0076905 2097.6298828 1561.7548829000002 C 2132.2597656 1518.1572267000001 2162.125 1470.7431641000003 2186.3964843999997 1420.8300782000001 C 2211.1113281999997 1370.0039063000002 2230.1328124999995 1316.350586 2242.9335938 1261.3613282000001 C 2256.100586 1204.8017579000002 2262.7763672 1146.3989259000002 2262.7763672 1087.7763673000002 C 2262.7763672 984.7978516 2242.6103516 884.9047852 2202.8378906 790.8725586 z" stroke-linecap="round" />
</g>
		<g transform="matrix(0.10348660856920494 0 0 0.10348660856920494 -4.042478078903059 7.9421124818906605)"  >
<linearGradient id="SVGID_3_102371" gradientUnits="userSpaceOnUse" gradientTransform="matrix(1 0 0 1 0 0)"  x1="947.788269" y1="1607.8421631" x2="2043.4404297" y2="928.5378418">
<stop offset="0%" style="stop-color:rgb(165,119,27);stop-opacity: 1"/>
<stop offset="83.9196%" style="stop-color:rgb(211,161,51);stop-opacity: 1"/>
<stop offset="100%" style="stop-color:rgb(244,185,66);stop-opacity: 1"/>
</linearGradient>
<path style="stroke: none; stroke-width: 1; stroke-dasharray: none; stroke-linecap: butt; stroke-dashoffset: 0; stroke-linejoin: miter; stroke-miterlimit: 4; fill: url(#SVGID_3_102371); fill-rule: evenodd; opacity: 1;"  paint-order="stroke"  transform=" translate(-1460.9371865599978, -1281.2453160529417)" d="M 2147.5837402 1183.4959717 C 2126.6220703000004 1182.7550049 2058.4926757000003 1171.0313721 2032.6115722000002 1138.9907226999999 C 2018.8366699000003 1174.0787354 2039.7834472000002 1222.7532958999998 2112.3503417 1263.2346192 C 2105.6791991 1277.3048096 2049.6882323 1343.80542 1949.1641845000001 1342.9732667 C 1848.6402587000002 1342.1411134 1773.4571533 1308.5905763 1761.8710937 1281.7784425 C 1750.2850341 1254.9664308 1783.3619384 1144.6195069999999 1915.7852783 1135.2818605 C 1754.3693847 1092.9300539 1688.7171631 1201.8443605 1693.258789 1313.3031007 C 1651.5783691 1255.2885743 1583.0665283 1095.0981446 1663.5886229999999 1029.5819093 C 1602.1427001 1006.9838258 1541.1990965999998 1025.873047 1541.1990965999998 1025.873047 C 1541.1990965999998 1025.873047 1598.4741209999997 912.4201661000001 1798.9588621999999 871.9589845 C 1579.0440672999998 832.598816 1516.1656492999998 914.5928346000001 1478.1499021999998 1005.4748536000001 C 1441.4670408999998 1093.1711427 1459.7620848 1192.4094239 1546.3481444 1349.7209474000001 C 1549.0686033999998 1355.7052003000001 1552.2644042 1361.5194093 1556.0341796 1367.0803224000001 C 1552.7070312 1361.2088624 1549.4943847 1355.4362794 1546.3481444 1349.7209474000001 C 1522.2495116 1296.699341 1537.585327 1229.5751954000002 1561.5972898999999 1192.7679445 C 1546.5002439999998 1352.0921633 1678.2482908999998 1396.9860841000002 1735.9096677999999 1545.1014406000002 C 1736.3099363999997 1497.4908449000002 1722.9289548999998 1415.2943117000002 1722.9289548999998 1415.2943117000002 C 1722.9289548999998 1415.2943117000002 1947.2448728999998 1707.2174074000002 1774.8518064999998 1928.9595949000002 C 1808.8674314999998 1855.1163332 1795.4348142999997 1689.9089357000003 1671.0061033999998 1571.0628664 C 1546.5773924999999 1452.2167971 1385.7388914999997 1328.7215578 1361.3234862 1198.3310549 C 1336.908203 1067.940674 1387.2849119999998 990.6397097 1387.2849119999998 990.6397097 C 1387.2849119999998 990.6397097 1396.7940672999998 1000.4007571000001 1437.3533934 1070.3784182 C 1423.3140868 957.9453126999999 1316.8182371999999 909.0466921 1316.8182371999999 909.0466921 C 1316.8182371999999 909.0466921 1289.7626951999998 787.7280886 1372.449829 781.0939943 C 1455.1369628 774.4599 1441.0621337 820.036133 1441.0621337 820.036133 C 1441.0621337 820.036133 1416.1917724 784.0895998 1383.5761718 823.7448731999999 C 1350.9605712 863.4002076999999 1377.9898681000002 945.0867311 1448.4797363 964.6782837999999 C 1449.8426513 904.2260742999999 1456.2125244000001 808.6486206999999 1593.1219482000001 799.6378784999999 C 1730.0312500000002 790.6270752999999 1839.7553711 825.5993043 1839.7553711 825.5993043 C 1839.7553711 825.5993043 1822.7661133000001 798.6427003 1761.8710938000002 751.4238282 C 1895.6226807000003 764.2376099 1958.4361573 847.8519288 1958.4361573 847.8519288 C 1958.4361573 847.8519288 2012.2705079000002 925.6256715 2010.3590089000002 966.5327149 C 2008.4473878000001 1007.4396972999999 2126.7248536 1091.7973633 2155.0012208000003 1126.0100098 C 2183.2775880000004 1160.2226563000002 2168.545166 1184.2369385 2147.5837402 1183.4959717 z M 1919.4940186 988.7853394 C 1918.7259522 972.9458008 1921.1065674 930.0769654 1899.0958251999998 920.1730347 C 1899.0958251999998 920.1730347 1812.9378662 907.5037232 1741.4729003999998 942.4256592 C 1784.4621581999997 949.8362427000001 1816.8343505999999 968.5949097 1819.3571776999997 985.0765381 C 1821.8798827999997 1001.5582276 1860.8775633999996 1020.5965576 1904.6589354999996 1031.4362793 C 1948.4401854999996 1042.2758789 1995.5239256999996 1079.6502686000001 1995.5239256999996 1079.6502686000001 C 1995.5239256999996 1079.6502686000001 1920.262085 1004.6248779 1919.4940186 988.7853394 z M 1633.918457 553.0043945 C 1633.918457 553.0043945 1691.6678466 571.2902220999999 1737.7640381 706.918518 C 1649.0981445000002 570.1289062 1444.7709961 540.0236815999999 1444.7709961 540.0236815999999 C 1444.7709961 540.0236815999999 1556.9064941000001 584.4718016999999 1654.1574707 729.3133545 C 1531.1459961 606.9848023 1243.6588135 543.5199584999999 1107.2724609 593.8009033 C 1187.8973388 506.4654541 1359.1577148 433.61740109999994 1563.4516601 486.2464599 C 1829.2673339 489.0790405 1856.4448242 716.1904296 1856.4448242 716.1904296 C 1786.1342773 590.2335205 1633.918457 553.0043945 1633.918457 553.0043945 z M 1563.4516602 718.0448608 C 1626.522461 767.9765014000001 1722.9289551000002 771.8220825000001 1722.9289551000002 771.8220825000001 C 1722.9289551000002 771.8220825000001 1689.3406983000002 779.4235229000001 1537.4903565000002 769.9676513 C 1385.6398926000002 760.5118408000001 1159.7833253000001 664.0976562000001 990.4461060000002 688.3746337 C 1206.352417 526.645813 1500.3809814 668.1131592 1563.4516602 718.0448608 z M 1300.1287842 753.2781982 C 1300.1287842 753.2781982 1071.1938476999999 883.4113159000001 877.3284911999999 897.9203491000001 C 976.4238890999999 881.6728515000001 1060.9128418 784.8027954 1060.9128418 784.8027954 C 1060.9128418 784.8027954 989.1650391000001 772.1010132 866.2022095 849.7062988 C 1017.1577759 638.7836914 1300.1287842 753.2781982 1300.1287842 753.2781982 z M 751.2302246 1294.7591553 C 763.1508179 920.7146607 1079.4566650000002 890.5028076 1079.4566650000002 890.5028076 C 1079.4566650000002 890.5028076 855.0287476 1006.7991943 751.2302246 1294.7591553 z M 1268.604126 858.9782715 C 1106.0107421999999 932.2087403 990.3757934999999 1215.2670899 1062.7672119 1367.0803223 C 1051.6647948999998 1223.0423584 1114.6900635 1151.9714356 1114.6900635 1151.9714356 C 1114.6900635 1151.9714356 1003.7490234999999 1465.4787598 1246.3515625 1593.3155517999999 C 1093.4572754 1460.2733154999999 1155.4865723 1309.5942383 1155.4865723 1309.5942383 C 1155.4865723 1309.5942383 1167.8073731 1465.4787597999998 1335.3620606 1559.9365235 C 1502.916748 1654.3944092 1753.4290771 1841.4053955 1661.7342529 2094 C 1679.8995361 1864.7375488 1452.0030517 1727.0268555 1276.0217284999999 1665.6365967 C 1100.0404052999997 1604.2463378999998 949.5762328999999 1485.366211 931.1057128999998 1320.7205811 C 883.3398437999998 1558.8432618 1083.1655273999997 1728.6857911 1083.1655273999997 1728.6857911 C 1083.1655273999997 1728.6857911 708.5484008999997 1494.5152589 858.7846679999998 1187.204712 C 1009.0209350999999 879.8941651 1268.604126 858.9782715 1268.604126 858.9782715 z M 1339.0709229 966.5327148 C 1339.0709229 966.5327148 1136.689209 1146.5279541 1442.9165039999998 1554.373413 C 1094.3768311 1380.7679443 1183.8015137 1007.541687 1339.0709229 966.5327148 z M 1544.9078369 1643.3839111 C 1430.0246582 1542.7757568 1370.595459 1368.9346923 1370.595459 1368.9346923 C 1615.2176513999998 1572.5155028000001 1781.5423584 1775.7408446 1721.0745849999998 1886.3085937 C 1732.3825684 1805.0130615 1659.7910156 1743.9921875 1544.9078369 1643.3839111 z M 1880.5518799 1793.5893555 C 1959.0543212999999 1647.4017334 1849.0273438 1489.4698487 1849.0273438 1489.4698487 C 1966.2114258 1583.2052002 2004.1923828 1667.3588867 1880.5518799 1793.5893555 z M 1934.3291016 1372.6434326 C 2020.9644776 1370.3632812 2086.3889161 1329.9925537000001 2086.3889161 1329.9925537000001 C 2117.2033692 1328.8923340000001 2066.6975099 1418.9421387000002 2023.3397218000002 1439.4013672 C 1979.9818116000001 1459.8607178000002 1892.8148195000003 1424.4449463 1878.6975099000001 1415.2943115 C 1864.5802003 1406.1436767 1874.1063232 1402.4349365 1934.3291016 1372.6434326 z" stroke-linecap="round" />
</g>
		<g transform="matrix(0.10348660856920494 0 0 0.10348660856920494 -3.608657331014001 0.07337417704141558)"  >
<linearGradient id="SVGID_4_102372" gradientUnits="userSpaceOnUse" gradientTransform="matrix(1 0 0 1 0 0)"  x1="915.9727783" y1="1545.8631592" x2="2028.6342773" y2="878.8896484">
<stop offset="0%" style="stop-color:rgb(255,205,80);stop-opacity: 1"/>
<stop offset="100%" style="stop-color:rgb(255,221,125);stop-opacity: 1"/>
</linearGradient>
<path style="stroke: none; stroke-width: 1; stroke-dasharray: none; stroke-linecap: butt; stroke-dashoffset: 0; stroke-linejoin: miter; stroke-miterlimit: 4; fill: url(#SVGID_4_102372); fill-rule: nonzero; opacity: 1;"  paint-order="stroke"  transform=" translate(-1465.1292337619216, -1205.2090209840276)" d="M 1816.3681641 1734.8571777 C 1822.8607178 1770.2875976 1821.7019043 1805.3908691 1812.3695069 1840.5878906 C 1811.6320801 1842.6469726 1810.8710938 1844.6967773000001 1810.0877686000001 1846.7377929 C 1818.300415 1638.7094727 1585.7182617 1460.7073975 1508 1380 C 1430 1299 1342 1199 1387 1017 C 1387 1017 1391.09021 1080.7695312 1420.8886719 1164.6313476999999 C 1420.9555664 1139.0986328 1426.6104736 1113.0627441 1443 1091 C 1443 1091 1449.1987305 1235.0314941 1524.2805176 1350.0133057 C 1541.8625488 1371.395874 1561.6716309 1392.2480469 1584 1412 C 1679.4355469 1496.4237061 1748.4541016 1574.2463379 1786.4824219 1649.2204590000001 C 1783.4254151 1593.862793 1753.5306397 1506.5761719000002 1740.7497558999999 1471.4272461 C 1740.4294433999999 1468.671875 1740.1052246999998 1465.9577637 1739.7788085999998 1463.2985840000001 C 1827.1795654 1598.5269775 1822.4000244 1698.3754883 1816.3681641 1734.8571777 z M 1166 1584 C 941.9151001 1349.5482178 1043.4277344 1083.9389648000001 1093.7427979 985.9602051 C 1154.0195312 924.5422363 1205 886 1205 886 C 1205 886 964 969 864 1204 C 804.4973145 1343.8312988 853.5901489 1465.3300781 903.9996948 1541.5900879 C 909.7369995 1549.972168 915.8103637 1558.3300781 922.2290039000001 1566.6572266 C 936.9478760000001 1585.7531739 952.4659424 1603.3721924000001 967.8666382000001 1619.3427735 C 972.3791504 1623.7172852 975 1626 975 1626 C 975 1626 852 1416 924 1230 C 934.9381714 1201.7429199 949.0420532 1174.1343994 965.0908813 1147.6257324 C 915.3275757 1325.1323242 1006.4274902 1531.0415039 1166 1584 z M 2147.2929688 1132.3803711 C 2158.6611328999998 1146.1352539 2163.1728516 1159.1787109 2159.3623047 1167.2714844 C 2157.4951172 1171.237793 2153.5449219 1173.5126953 2148.5244141000003 1173.5126953 C 2148.3291016000003 1173.5126953 2148.1347657 1173.5092773 2147.9375000000005 1173.5024414 C 2128.2568359000006 1172.8066406 2063.5781250000005 1161.4125976 2040.3906250000005 1132.7070311999998 L 2029.5859375000005 1119.3315429 L 2023.3027344000004 1135.3364256999998 C 2009.8808594000004 1169.5278319 2023.0214844000004 1221.2832029999997 2098.1318360000005 1266.548828 C 2097.8403321000005 1266.9194335 2097.5234376000003 1267.3107909 2097.2070313000004 1267.7014159 C 2067.5200195 1281.2207031 1976.2670898 1318.9476318 1907 1314 C 1823 1308 1828 1221 1828 1221 C 1828 1221 1816 1222 1796 1246 C 1803.8151855 1204.7926025 1839.5012207 1172.0286865 1874.7770996 1152.4068604 C 1883.9036864999998 1149.8032226999999 1893.2285156 1147.9202880999999 1902.6335448999998 1146.6624755999999 C 1909.0568846999997 1145.8033446999998 1921.8465575999999 1148.1229248 1926.5108641999998 1142.8154296999999 C 1929.1401366999999 1139.8234862999998 1928.8457030999998 1135.0087890999998 1926.6036375999997 1131.7165527 C 1919.9462889999998 1121.94104 1900.1076658999998 1121.1746825999999 1889.6400145999996 1119.4428711 C 1876.2249754999996 1117.2232666 1862.6368407999996 1115.9316406 1849.0332030999996 1115.9316406 C 1808.6579589999997 1115.9316406 1773.3931884999995 1127.6193847 1745.9577635999997 1149.8922119000001 C 1725.0827635999997 1162.2446289000002 1706.2822264999998 1179.0478515000002 1691.9999998999997 1201.0000000000002 C 1681.9999998999997 1112.0000000000002 1727.9999998999997 1050.0000000000002 1727.9999998999997 1050.0000000000002 C 1727.9999998999997 1050.0000000000002 1688.9999998999997 1063.0000000000002 1653.9999998999997 1131.0000000000002 C 1655.9999998999997 1053.0000000000002 1713.9999998999997 1005.0000000000002 1713.9999998999997 1005.0000000000002 C 1713.9999998999997 1005.0000000000002 1659.9999998999997 968.0000000000002 1578.9999998999997 999.0000000000002 C 1625.4270018999996 952.5729980000002 1679.1013182999998 922.3103027000002 1723.8110350999996 903.1105957000002 C 1738.4827879999996 896.8100586000002 1754.7541502999995 892.8270264000002 1770.1738280999996 888.8327026000002 C 1778.7191161999997 886.6191406000002 1787.3267821999996 884.4780883000002 1795.9915770999996 882.7810669000002 C 1802.0819090999996 881.5882568000002 1813.4796141999996 880.2166748000002 1817.3212889999995 874.4499512000001 C 1823.2237547999996 865.5888672000001 1794.5491942999995 861.2231446000001 1789.8417967999994 860.3538208000001 C 1754.9534910999994 853.9113770000001 1719.5546873999995 848.1555786000001 1684.0002440999995 851.0000000000001 C 1674.5393065999995 851.7568359000002 1665.6091307999995 852.6755371000002 1657.1065672999994 853.7932129000001 C 1596.7260740999993 860.0810547000001 1555.9912108999993 881.1267090000001 1526.6616209999993 909.8703613 C 1508.9051514 924.6790771 1490.2827148 943.0802002 1469 966 C 1506 852 1621 826 1621 826 C 1621 826 1582.8693848 812.0539551 1536.206543 820.9245605 C 1536.5759278 820.7871093 1536.9390869000001 820.6442870999999 1537.3112793 820.5090332 C 1564.3221436000001 814.2963867 1591.4047852 810.4217529 1618.1762695 808.4718018 C 1625.0322265 808.2692872 1631.9211425 808.1538085999999 1638.8115234 808.1538085999999 C 1750.6064453 808.1538085999999 1835.8740234 834.8579101999999 1836.7226561999998 835.1279297 C 1840.4222412 836.3044434 1844.1218261 837.480957 1847.8212889999998 838.6574707 C 1851.7460936999998 839.9055786 1856.2258299999999 842.7600708 1860.3791502999998 842.8805542 C 1863.7171629999998 842.977356 1862.9926756999998 840.7440186 1862.0352781999998 837.8707886 C 1860.9838865999998 834.71521 1859.1072996999997 831.8980103 1857.5522459999997 828.9822388 C 1855.0722654999997 824.3320313 1852.2004393999998 819.8994751 1849.0849607999996 815.6524048 C 1837.1655271999996 799.4041138 1823.4570310999995 784.4035645 1809.5902097999997 769.8098145 C 1851.3470456999996 780.4377442 1882.8913572999998 797.6840821000001 1903.8867185999998 812.1586915 C 1933.5820310999998 832.6303712 1948.9833982999999 851.9848634 1950.3525388999997 853.7441407 C 1964.8896482999996 874.8061524 2001.8017576999996 935.4160157 2000.3701169999997 966.065918 C 1998.9550778999997 996.3388672 2043.0322263999997 1037.6938477 2100.8017575999997 1088.6113282000001 C 2120.3398438 1105.8320312 2138.7939453 1122.0981445 2147.2929688 1132.3803711 z M 1995.0876465 1064.6542969 C 1988.1213378999998 1057.2086182 1980.7377929999998 1050.1662598 1973.7749024 1042.7170409999999 C 1957.9768066 1018.4306641 1940.6062012 991.677002 1939 989 C 1936 984 1981 978 1976 963 C 1971 948 1953 911 1939 912 C 1927.8262939 912.7980957 1928.7397461 923.772583 1915.8435059 921.0598145 C 1912.5319825000001 916.8579102 1908.3978272000002 913.3929444 1903.1992188000002 911.053711 L 1901.9287110000002 910.4819337 L 1900.5507813000002 910.279297 C 1899.8994141 910.1835939 1884.3232422 907.9331056000001 1860.8935547 907.9331056000001 C 1828.2246094000002 907.9331056000001 1780.2265625 912.3583986000001 1737.0820313000002 933.4414064000001 L 1709.2851563000002 947.0249025000002 L 1739.7744141 952.2802736000002 C 1759.1777344 955.6254884000002 1777.272461 961.5937502000002 1790.7236329 969.0859377000002 C 1803.6904298 976.3076174000001 1808.9277345 983.0288088000002 1809.4726563 986.5903322000001 C 1814.2539063 1017.8330080000002 1887.6015625 1037.5146486 1902.2558594 1041.1430666 C 1922.8895264 1046.2519533000002 1942.2292481 1056.4029543000001 1960.2282715 1067.489258 C 1967.2353515999998 1071.8050539 1974.0963135 1076.3637697000001 1980.7884522 1081.1534426 C 1986.8918457999998 1085.5216067000001 1992.7961426 1092.3106692000001 2000.7983399 1092.912842 C 2004.8770753 1093.2196047 2009.4726563 1090.8198244 2010.1356202 1086.7839357999999 C 2010.5955811 1083.9837648999999 2009.1762695999998 1080.8032228999998 2006.9956055999999 1077.6751711999998 C 2003.4338379 1072.565918 1997.8408203 1067.5968018 1995.0876465 1064.6542969 z M 774.7958984 1213.0858154 C 838.8189087000001 1045.2773437 969.2338867000001 951.6669922 1003.5640258000001 929.2863769 C 1005.8289184000001 927.5319824000001 1008.0467529000001 925.8393554 1010.2326659 924.1870117000001 C 999.2472533 925.3151855000001 987.677368 927.9958496 975.7806395 932.1760254000001 C 959.564575 939.7772217 942.5111693 949.1242676 925.4033202 960.6562500000001 C 879.9233397 991.3134766000001 843.1987304 1031.0341797 816.2504882000001 1078.7143555 C 815.2984008000001 1080.3988037 814.3812865000001 1082.1125489 813.4534911000001 1083.8173828 C 791.7209472000001 1124.2988280999998 775.7719725000001 1171.446289 769.5694579000001 1224.0915527 C 771.2943115 1220.3884277 773.0361938 1216.7197266 774.7958984 1213.0858154 z M 2085.8544922 1341.8330078 C 2068.5629883 1351.3505859 2014.6820068000002 1377.9177246 1945.3303223 1382.1652832 C 1978.2122803 1397.7712402 1987.710083 1388.3479004 1983 1394 C 1978 1400 1930 1410 1912 1404 C 1937.1322021 1416.3457031 1955.2602539 1426.9365234 1969.5666504 1434.1542969 C 1976.5041504 1435.1062012 1983.3691406 1435.6660157 1989.9453125 1435.6660157 C 2001.8066406 1435.6660157 2011.6074219 1433.8798829 2019.0722656 1430.3574219 C 2033.953125 1423.3359375 2052.461914 1404.9628907 2067.3769531 1382.4091796999999 C 2080.1708984 1363.0615234 2085.1796875 1348.4824219 2085.8544922 1341.8330078 z M 1941.3105469 1685.3970947 C 1957.0109863 1630.1590576 1932.4624023 1584.4655762 1895 1550 C 1895 1550 1946.8708496 1653.7673340000001 1912.1295166 1741.199707 C 1926.0424805 1721.8115234 1935.7490234 1703.2623291 1941.3105469 1685.3970947 z M 1148.5693359 572.5715942 C 1148.8095703 572.5286254 1149.0524902 572.4878540000001 1149.2932128999998 572.4453125 C 1169.6223145 563.6304321 1189.4863280999998 556.140564 1208.8625487999998 549.8522339 C 1335.6459960999998 540.6925659 1458.6179198999998 595.9405518 1527.2055663999997 634.2919312 C 1543.2429198999998 641.55542 1558.7939452999997 649.3873902 1573.6751708999998 657.7680054 C 1500.5147704999997 572.0772095 1420.7391356999997 536.3165283 1375.5932616999999 521.9888306 C 1465.8822020999999 521.5229493 1555.9873046999999 546.5374756 1632.3756102999998 594.8588868 C 1649.3974609 605.6265870000001 1664.5257567999997 618.9122926 1680.9393309999998 630.3439332 C 1674.1364745999997 622.2121583 1672.0128172999998 611.4455567 1666.3568114999998 602.6442262 C 1660.0792235999998 592.8757325 1653.1112059999998 583.5498658 1645.5034179 574.7770387 C 1635.1566160999998 562.8456422 1623.6007078999999 551.9724122 1611.1171874 542.3020021000001 C 1602.7471922999998 535.8182985000001 1587.6994628 521.4519655000001 1576.8746337 519.9867555000001 C 1717.2150879 538.9838257 1819 649 1819 649 C 1778.5947266 543.1766968 1641.0239258 489.1968384 1566.5281982 514.6309814 C 1443.3358154 454.1880493 1267.4827881 481.7676392 1148.5693359 572.5715942 z M 1484.1539307 753.7294922 C 1384.5985107 685.7061157 1192 662 1192 662 C 1378.0905762 650.3084717 1497.7318115 743.0205078 1607.3430176 755.1938477 C 1603.6398926 753.5976563 1599.944336 751.895752 1596.2674561 750.1038819 C 1567.1634521 740.8842773 1510.0922852 720.850769 1454 690 C 1374 646 1223 609 1044 669 C 1189.8767090000001 677.8709106 1386.2663574 715.887085 1481.8835449 753.3640137 C 1482.6416016 753.4870605 1483.3984375 753.6090088 1484.1539307 753.7294922 z M 1591.4216309 1592.7612305 C 1544.7067871000002 1539.7164307 1486.2946778 1482.3568116000001 1418.1964112 1422.709961 C 1495.9985352 1508.9030762 1678.6784669 1714.9318848 1715.9685059 1789.7299805 C 1687.4588623 1721.0195312 1640.854248 1652.9533691 1591.4216309 1592.7612305 z M 1099.956543 757.7011719 C 1087.8669434 775.8835449 1057.5292969 815.9953614 1008.1331787 846.4693603999999 C 1001.4598389 851.5737304999999 994.8062744 856.3732911 988.1759643 860.8737792999999 C 1147.3421631 829.5297852 1261 756 1261 756 L 1214.6157227 753.605957 C 1243.1248779 754.2987061 1261 756 1261 756 C 1244.8444824 749.0559082 1227.7636719 743.6014404 1210.1105957 739.5870361 C 1185.934082 735.3627928999999 1158.1293945 732.2553710999999 1128.6411133 732.2553710999999 C 1079.8491210999998 732.2553710999999 1035.1191405999998 740.6738280999999 995.6938476999999 757.2758789 C 965.8026733999999 769.8635254 938.8264160999998 787.2668457 915.0169067999999 809.2495117 C 968.4389038 778.3508301 1037.5551758 763.9686279 1099.956543 757.7011719 z M 1306.5827637 1629.1234131 C 1320.9135742 1639.3778076 1336.3406983 1648.2089844000002 1351.3166504 1657.4522705000002 C 1386.2177734000002 1678.9932861000002 1421.5820313000002 1699.8012695000002 1455.8801270000001 1722.3057861000002 C 1467.5498047 1729.9627685000003 1479.0946045 1737.8126220000001 1490.4407959000002 1745.9423828000001 C 1542.1429443000002 1782.9879150000002 1594.9801025000002 1825.5927734000002 1627.3270264000002 1881.4302978 C 1631.6956787000001 1888.9715576 1635.6405030000003 1896.7630615 1639.0270996000002 1904.795166 C 1641.7507324 1911.2547607 1647 1920.8970947 1647 1928 C 1621 1762 1453 1641 1357 1592 C 1266.9637451 1546.0439453 1205.9552002 1485.1339111 1166.5488281 1387.8217773000001 C 1164.1455078000001 1382.0197753000002 1162.0137939 1376.4279785 1160.1210937 1371.0839843 C 1159.746582 1370.057373 1159.3701172 1369.0344238 1159 1368 C 1159 1368 1153.0794678 1458.9857178 1212.3406982 1544.1749268 C 1224.8435058 1562.1479493000002 1242.5651854999999 1574.4571534000002 1258.6253662 1588.8717041 C 1272.7108154 1601.5139159999999 1286.7380371 1614.2751465 1301.8732909999999 1625.6687012 C 1303.4283447 1626.8393555 1304.9989014 1627.9901123 1306.5827637 1629.1234131 z M 1717.1557617 1792.1755371 C 1716.7764892 1791.3754883 1716.383667 1790.5627441 1715.9685058 1789.7299805 C 1716.5200195 1791.0590821 1717.0462646 1792.388916 1717.5843505 1793.7185059 C 1717.4459229 1793.2062988 1717.2989502 1792.6901855 1717.1557617 1792.1755371 z M 1280 1027 C 1175.8796387 1123.262207 1187.5484619 1384.5080566 1392.7062988 1500.8376465000001 C 1382.196289 1485.0761719000002 1372.4667968 1469.6875000000002 1363.4936523000001 1454.6848145000001 C 1199.3635254 1221.2419434 1280 1027 1280 1027 z M 1226.0327148 1593.3613281 C 1133.4139403999998 1538.0224609 1082.8603515 1445.6245117 1079.5483398 1324.9785156 C 1078.9970703 1304.8913574 1079.7800292999998 1285.5800781 1081.359375 1267.5659179 C 1078.7976074 1276.8568114999998 1073.9042969 1297.1718749 1071.6081543 1323.7851561999998 C 1071.2697754 1337.1108398 1071.5792236 1351.2861328 1072.7373047 1366.3115234 L 1070.6870117 1366.8590087999999 C 1074.0423584 1440.8139648 1104.8200684 1536.4682617 1226.0327148 1593.3613281 z M 1659 1453 C 1604.3754883 1406.5692139 1577.8005371 1344.3254395 1564.9289551 1297.3972168 C 1558.2087403 1279.8481445 1553.4592284999999 1260.9311523000001 1551.4628906 1239.9765625 C 1550.4847412000001 1243.3634033 1549.5998535 1246.8017578 1548.8071289 1250.2712402 C 1544.3807373 1277.2340087999999 1542.7150878999998 1317.6088866999999 1563.1595459 1359.3596191 C 1563.6865234 1360.2946777 1564.2145996 1361.2321777 1564.734375 1362.149414 L 1564.6005859 1362.2324217999999 C 1580.6877441 1393.560791 1609.4370117 1425.505249 1659 1453 z M 1328 899 C 1331.4082031 811.2370605 1395.0648193 796.0791016000001 1413.8273926 793.5141602 C 1407.6376953 791.6695557 1399.2807616999999 790.4345704 1387.9780274 790.4345704 C 1383.3969726999999 790.4345704 1378.4418946 790.6455079 1373.2495118 791.0625001 C 1357.1796875999999 792.3515626 1345.2963868 798.4877931 1336.9208985 809.8212891999999 C 1326.9074708 823.3718263 1323.3909913 842.2009278999999 1322.7114258 859.6739502999999 C 1322.803833 871.5839844 1324.5234375 884.74646 1328 899 z" stroke-linecap="round" />
</g>
</g>
</g>
<g transform="matrix(1.988071570576541 0 0 1.988071570576541 639.8248290234844 450.6339214950229)" id="text-logo"  >
<g style=""  paint-order="stroke"   >
		<g transform="matrix(1 0 0 1 0 0)" id="text-logo-path-0"  >
<filter id="SVGID_102367" y="-79.93407252022776%" height="259.8681450404555%" x="-24.04809132494029%" width="148.09618264988057%" >
	<feGaussianBlur in="SourceAlpha" stdDeviation="10"></feGaussianBlur>
	<feOffset dx="0" dy="0" result="oBlur" ></feOffset>
	<feFlood flood-color="rgb(0,0,0)" flood-opacity="1"/>
	<feComposite in2="oBlur" operator="in" />
	<feMerge>
		<feMergeNode></feMergeNode>
		<feMergeNode in="SourceGraphic"></feMergeNode>
	</feMerge>
</filter>
<path style="stroke: rgb(255,255,255); stroke-width: 0; stroke-dasharray: none; stroke-linecap: butt; stroke-dashoffset: 0; stroke-linejoin: miter; stroke-miterlimit: 4; fill: rgb(255,255,255); fill-rule: nonzero; opacity: 1;filter: url(#SVGID_102367);"  paint-order="stroke"  transform=" translate(-248.58, 16.215)" d="M 15.23 -32.9 L 5.17 -3.57 C 4.65 -2.07 3.2 -1.18 1.55 -0.23 L 1.6 0 L 6.77 0 L 6.82 -0.23 C 5.17 -1.18 5.12 -2.07 5.64 -3.57 L 8.51 -11.98 L 18.75 -11.98 L 21.9 -3.52 C 22.47 -2.07 22.47 -1.18 20.82 -0.23 L 20.87 0 L 30.74 0 L 30.79 -0.23 C 29.14 -1.18 27.64 -2.07 27.07 -3.52 L 16.17 -32.9 Z M 8.7 -12.46 L 13.39 -26.23 L 18.57 -12.46 Z M 47.8 -29.14 L 47.8 -3.76 C 47.8 -2.21 47.05 -1.18 45.4 -0.23 L 45.45 0 L 55.32 0 L 55.37 -0.23 C 53.72 -1.18 52.97 -2.21 52.97 -3.76 L 52.97 -14.34 L 56.21 -14.34 L 61.19 -3.43 C 61.85 -2.02 61.99 -1.18 60.35 -0.23 L 60.39 0 L 70.27 0 L 70.31 -0.23 C 68.67 -1.18 67.02 -2.02 66.36 -3.43 L 61.24 -14.76 C 65.56 -15.89 67.82 -19.08 67.82 -23.64 C 67.82 -29.56 64.11 -32.9 57.53 -32.9 L 45.45 -32.9 L 45.4 -32.66 C 47.05 -31.73 47.8 -30.69 47.8 -29.14 Z M 52.97 -14.8 L 52.97 -32.43 L 57.06 -32.43 C 61.19 -32.43 62.32 -29.99 62.32 -23.64 C 62.32 -17.16 61.05 -14.8 57.06 -14.8 Z M 87.33 -29.14 L 87.33 -3.76 C 87.33 -2.21 86.57 -1.18 84.93 -0.23 L 84.98 0 L 94.85 0 L 94.89 -0.23 C 93.25 -1.18 92.5 -2.21 92.5 -3.76 L 92.5 -29.14 C 92.5 -30.69 93.25 -31.73 94.89 -32.66 L 94.85 -32.9 L 84.98 -32.9 L 84.93 -32.66 C 86.57 -31.73 87.33 -30.69 87.33 -29.14 Z M 111.91 -29.14 L 111.91 -3.76 C 111.91 -2.21 111.16 -1.18 109.51 -0.23 L 109.56 0 L 131.51 0 L 131.51 -5.17 L 131.18 -5.26 C 129.77 -1.97 128.22 -0.47 125.87 -0.47 L 117.08 -0.47 L 117.08 -16.68 L 121.17 -16.68 C 123.52 -16.68 125.07 -15.56 126.48 -13.11 L 126.81 -13.16 L 126.81 -20.68 L 126.48 -20.77 C 125.07 -18.28 123.52 -17.16 121.17 -17.16 L 117.08 -17.16 L 117.08 -32.43 L 125.87 -32.43 C 128.22 -32.43 129.77 -30.93 131.18 -27.64 L 131.51 -27.73 L 131.51 -32.9 L 109.56 -32.9 L 109.51 -32.66 C 111.16 -31.73 111.91 -30.69 111.91 -29.14 Z M 148.52 -29.14 L 148.52 -3.76 C 148.52 -2.21 147.77 -1.18 146.12 -0.23 L 146.17 0 L 168.12 0 L 168.12 -5.17 L 167.79 -5.26 C 166.38 -1.97 164.83 -0.47 162.48 -0.47 L 153.69 -0.47 L 153.69 -29.14 C 153.69 -30.69 154.44 -31.73 156.09 -32.66 L 156.04 -32.9 L 146.17 -32.9 L 146.12 -32.66 C 147.77 -31.73 148.52 -30.69 148.52 -29.14 Z M 208.4 -29.14 L 208.4 -3.76 C 208.4 -2.21 207.65 -1.18 206 -0.23 L 206.05 0 L 218.6 0 C 226.02 0 229.83 -3.52 229.83 -9.78 C 229.83 -14.57 226.3 -18.19 221.42 -19.22 C 225.32 -19.88 227.2 -22.18 227.2 -25.99 C 227.2 -30.08 223.63 -32.9 218.97 -32.9 L 206.05 -32.9 L 206 -32.66 C 207.65 -31.73 208.4 -30.69 208.4 -29.14 Z M 213.57 -0.47 L 213.57 -19.04 L 218.13 -19.04 C 222.78 -19.04 224.33 -16.5 224.33 -9.78 C 224.33 -3.52 222.17 -0.47 218.13 -0.47 Z M 213.57 -19.5 L 213.57 -32.43 L 217.75 -32.43 C 221.23 -32.43 222.36 -30.69 222.36 -25.99 C 222.36 -21.62 220.76 -19.5 217.75 -19.5 Z M 247.31 -29.14 L 247.31 -3.76 C 247.31 -2.21 246.56 -1.18 244.92 -0.23 L 244.96 0 L 266.91 0 L 266.91 -5.17 L 266.58 -5.26 C 265.17 -1.97 263.62 -0.47 261.27 -0.47 L 252.48 -0.47 L 252.48 -16.68 L 256.57 -16.68 C 258.92 -16.68 260.47 -15.56 261.88 -13.11 L 262.21 -13.16 L 262.21 -20.68 L 261.88 -20.77 C 260.47 -18.28 258.92 -17.16 256.57 -17.16 L 252.48 -17.16 L 252.48 -32.43 L 261.27 -32.43 C 263.62 -32.43 265.17 -30.93 266.58 -27.64 L 266.91 -27.73 L 266.91 -32.9 L 244.96 -32.9 L 244.92 -32.66 C 246.56 -31.73 247.31 -30.69 247.31 -29.14 Z M 283.93 -29.14 L 283.93 -3.76 C 283.93 -2.21 283.18 -1.18 281.53 -0.23 L 281.58 0 L 286.75 0 L 286.79 -0.23 C 285.15 -1.18 284.4 -2.21 284.4 -3.76 L 284.4 -25.57 L 303.67 0 L 304.14 0 L 304.14 -29.14 C 304.14 -30.69 304.89 -31.73 306.53 -32.66 L 306.49 -32.9 L 301.32 -32.9 L 301.27 -32.66 C 302.91 -31.73 303.67 -30.69 303.67 -29.14 L 303.67 -8.13 L 285.01 -32.9 L 281.58 -32.9 L 281.53 -32.66 C 283.18 -31.73 283.93 -30.69 283.93 -29.14 Z M 323.22 -6.91 C 324.35 -6.91 325.24 -7.8 325.24 -8.98 C 325.24 -10.11 324.35 -11 323.22 -11 C 322.04 -11 321.15 -10.11 321.15 -8.74 C 321.15 -3.71 324.21 0.47 329.89 0.47 C 335.44 0.47 339.9 -2.73 339.9 -8.98 L 339.9 -29.14 C 339.9 -30.69 340.66 -31.73 342.3 -32.66 L 342.25 -32.9 L 332.38 -32.9 L 332.34 -32.66 C 333.98 -31.73 334.73 -30.69 334.73 -29.14 L 334.73 -6.53 C 334.73 -2.07 332.24 -0.09 329.89 -0.09 C 326.79 -0.09 324.58 -1.41 323.27 -3.48 C 322.47 -4.65 321.43 -7.52 322.47 -7.05 C 322.7 -6.96 322.94 -6.91 323.22 -6.91 Z M 367.77 -32.9 L 357.72 -3.57 C 357.2 -2.07 355.74 -1.18 354.1 -0.23 L 354.14 0 L 359.31 0 L 359.36 -0.23 C 357.72 -1.18 357.67 -2.07 358.19 -3.57 L 361.05 -11.98 L 371.3 -11.98 L 374.45 -3.52 C 375.01 -2.07 375.01 -1.18 373.37 -0.23 L 373.41 0 L 383.28 0 L 383.33 -0.23 C 381.69 -1.18 380.18 -2.07 379.62 -3.52 L 368.71 -32.9 Z M 361.24 -12.46 L 365.94 -26.23 L 371.11 -12.46 Z M 423.85 -32.9 L 414.87 -6.67 L 405.05 -32.9 L 398 -32.9 L 397.95 -32.66 C 399.59 -31.73 400.35 -30.69 400.35 -29.14 L 400.35 -3.76 C 400.35 -2.21 399.59 -1.18 397.95 -0.23 L 398 0 L 403.17 0 L 403.21 -0.23 C 401.57 -1.18 400.82 -2.21 400.82 -3.76 L 400.82 -30.36 L 412.1 0 L 413.04 0 L 423.85 -31.54 L 423.85 -3.76 C 423.85 -2.21 423.09 -1.18 421.45 -0.23 L 421.5 0 L 431.37 0 L 431.41 -0.23 C 429.77 -1.18 429.02 -2.21 429.02 -3.76 L 429.02 -29.14 C 429.02 -30.69 429.77 -31.73 431.41 -32.66 L 431.37 -32.9 Z M 448.43 -29.14 L 448.43 -3.76 C 448.43 -2.21 447.67 -1.18 446.03 -0.23 L 446.08 0 L 455.95 0 L 455.99 -0.23 C 454.35 -1.18 453.6 -2.21 453.6 -3.76 L 453.6 -29.14 C 453.6 -30.69 454.35 -31.73 455.99 -32.66 L 455.95 -32.9 L 446.08 -32.9 L 446.03 -32.66 C 447.67 -31.73 448.43 -30.69 448.43 -29.14 Z M 473.01 -29.14 L 473.01 -3.76 C 473.01 -2.21 472.26 -1.18 470.61 -0.23 L 470.66 0 L 475.83 0 L 475.87 -0.23 C 474.23 -1.18 473.48 -2.21 473.48 -3.76 L 473.48 -25.57 L 492.75 0 L 493.22 0 L 493.22 -29.14 C 493.22 -30.69 493.97 -31.73 495.61 -32.66 L 495.57 -32.9 L 490.4 -32.9 L 490.35 -32.66 C 492 -31.73 492.75 -30.69 492.75 -29.14 L 492.75 -8.13 L 474.09 -32.9 L 470.66 -32.9 L 470.61 -32.66 C 472.26 -31.73 473.01 -30.69 473.01 -29.14 Z" stroke-linecap="round" />
</g>
</g>
</g>
<g transform="matrix(1.988071570576541 0 0 1.988071570576541 640 529.5965855109274)" id="tagline-d7b65c7a-4560-466d-b738-0e2ce3447530-logo"  >
<g style=""  paint-order="stroke"   >
		<g transform="matrix(1 0 0 1 5.684342e-14 0)" id="tagline-d7b65c7a-4560-466d-b738-0e2ce3447530-logo-path-0"  >
<filter id="SVGID_102368" y="-158.8888888888889%" height="417.7777777777778%" x="-23.31213566507684%" width="146.62427133015368%" >
	<feGaussianBlur in="SourceAlpha" stdDeviation="10"></feGaussianBlur>
	<feOffset dx="0" dy="0" result="oBlur" ></feOffset>
	<feFlood flood-color="rgb(0,0,0)" flood-opacity="1"/>
	<feComposite in2="oBlur" operator="in" />
	<feMerge>
		<feMergeNode></feMergeNode>
		<feMergeNode in="SourceGraphic"></feMergeNode>
	</feMerge>
</filter>
<path style="stroke: none; stroke-width: 0; stroke-dasharray: none; stroke-linecap: butt; stroke-dashoffset: 0; stroke-linejoin: miter; stroke-miterlimit: 4; fill: rgb(251,211,104); fill-rule: nonzero; opacity: 1;filter: url(#SVGID_102368);"  paint-order="stroke"  transform=" translate(-302.58000000000004, 7)" d="M 1.68 -12.4 L 1.68 -1.6 C 1.68 -0.94 1.36 -0.5 0.66 -0.1 L 0.68 0 L 5.42 0 C 9.36 0 11.52 -2.8 11.52 -7 C 11.52 -11.38 9.24 -14 5.42 -14 L 0.68 -14 L 0.66 -13.9 C 1.36 -13.5 1.68 -13.06 1.68 -12.4 Z M 3.88 -0.2 L 3.88 -13.8 L 5.42 -13.8 C 8.08 -13.8 8.92 -11.66 8.92 -7 C 8.92 -2.08 8.04 -0.2 5.42 -0.2 Z M 24.06 -12.4 L 24.06 -1.6 C 24.06 -0.94 23.74 -0.5 23.04 -0.1 L 23.06 0 L 27.26 0 L 27.28 -0.1 C 26.58 -0.5 26.26 -0.94 26.26 -1.6 L 26.26 -6.1 L 27.64 -6.1 L 29.76 -1.46 C 30.04 -0.86 30.1 -0.5 29.4 -0.1 L 29.42 0 L 33.62 0 L 33.64 -0.1 C 32.94 -0.5 32.24 -0.86 31.96 -1.46 L 29.78 -6.28 C 31.62 -6.76 32.58 -8.12 32.58 -10.06 C 32.58 -12.58 31 -14 28.2 -14 L 23.06 -14 L 23.04 -13.9 C 23.74 -13.5 24.06 -13.06 24.06 -12.4 Z M 26.26 -6.3 L 26.26 -13.8 L 28 -13.8 C 29.76 -13.8 30.24 -12.76 30.24 -10.06 C 30.24 -7.3 29.7 -6.3 28 -6.3 Z M 46.18 -12.4 L 46.18 -1.6 C 46.18 -0.94 45.86 -0.5 45.16 -0.1 L 45.18 0 L 54.52 0 L 54.52 -2.2 L 54.38 -2.24 C 53.78 -0.84 53.12 -0.2 52.12 -0.2 L 48.38 -0.2 L 48.38 -7.1 L 50.12 -7.1 C 51.12 -7.1 51.78 -6.62 52.38 -5.58 L 52.52 -5.6 L 52.52 -8.8 L 52.38 -8.84 C 51.78 -7.78 51.12 -7.3 50.12 -7.3 L 48.38 -7.3 L 48.38 -13.8 L 52.12 -13.8 C 53.12 -13.8 53.78 -13.16 54.38 -11.76 L 54.52 -11.8 L 54.52 -14 L 45.18 -14 L 45.16 -13.9 C 45.86 -13.5 46.18 -13.06 46.18 -12.4 Z M 71.86 -14 L 67.58 -1.52 C 67.36 -0.88 66.74 -0.5 66.04 -0.1 L 66.06 0 L 68.26 0 L 68.28 -0.1 C 67.58 -0.5 67.56 -0.88 67.78 -1.52 L 69 -5.1 L 73.36 -5.1 L 74.7 -1.5 C 74.94 -0.88 74.94 -0.5 74.24 -0.1 L 74.26 0 L 78.46 0 L 78.48 -0.1 C 77.78 -0.5 77.14 -0.88 76.9 -1.5 L 72.26 -14 Z M 69.08 -5.3 L 71.08 -11.16 L 73.28 -5.3 Z M 101.02 -14 L 97.2 -2.84 L 93.02 -14 L 90.02 -14 L 90 -13.9 C 90.7 -13.5 91.02 -13.06 91.02 -12.4 L 91.02 -1.6 C 91.02 -0.94 90.7 -0.5 90 -0.1 L 90.02 0 L 92.22 0 L 92.24 -0.1 C 91.54 -0.5 91.22 -0.94 91.22 -1.6 L 91.22 -12.92 L 96.02 0 L 96.42 0 L 101.02 -13.42 L 101.02 -1.6 C 101.02 -0.94 100.7 -0.5 100 -0.1 L 100.02 0 L 104.22 0 L 104.24 -0.1 C 103.54 -0.5 103.22 -0.94 103.22 -1.6 L 103.22 -12.4 C 103.22 -13.06 103.54 -13.5 104.24 -13.9 L 104.22 -14 Z M 120.34 0.2 C 122.96 0.2 124.88 -1.66 124.88 -4.04 C 124.88 -8.72 117.1 -7.74 117.1 -11.38 C 117.1 -12.8 118.58 -14 120.22 -14 C 121.58 -14 122.7 -13.44 123.28 -12.44 C 123.62 -11.86 123.52 -11.54 123.32 -11.66 C 123.2 -11.72 123.08 -11.74 122.96 -11.74 C 122.46 -11.74 122.08 -11.36 122.08 -10.88 C 122.08 -10.38 122.46 -10 122.96 -10 C 123.44 -10 123.82 -10.38 123.82 -11.08 C 123.82 -13.08 122.2 -14.2 120.22 -14.2 C 117.84 -14.2 115.84 -12.68 115.84 -10.5 C 115.84 -5.68 123.58 -6.52 123.58 -3.14 C 123.58 -1.54 122.2 0 120.34 0 C 117.92 0 116.4 -1.24 115.96 -3.7 L 115.76 -3.7 C 116.2 -1.12 117.84 0.2 120.34 0.2 Z M 157.42 -14 L 153.14 -1.52 C 152.92 -0.88 152.3 -0.5 151.6 -0.1 L 151.62 0 L 153.82 0 L 153.84 -0.1 C 153.14 -0.5 153.12 -0.88 153.34 -1.52 L 154.56 -5.1 L 158.92 -5.1 L 160.26 -1.5 C 160.5 -0.88 160.5 -0.5 159.8 -0.1 L 159.82 0 L 164.02 0 L 164.04 -0.1 C 163.34 -0.5 162.7 -0.88 162.46 -1.5 L 157.82 -14 Z M 154.64 -5.3 L 156.64 -11.16 L 158.84 -5.3 Z M 176.58 -12.4 L 176.58 -1.6 C 176.58 -0.94 176.26 -0.5 175.56 -0.1 L 175.58 0 L 179.78 0 L 179.8 -0.1 C 179.1 -0.5 178.78 -0.94 178.78 -1.6 L 178.78 -6.1 L 180.16 -6.1 L 182.28 -1.46 C 182.56 -0.86 182.62 -0.5 181.92 -0.1 L 181.94 0 L 186.14 0 L 186.16 -0.1 C 185.46 -0.5 184.76 -0.86 184.48 -1.46 L 182.3 -6.28 C 184.14 -6.76 185.1 -8.12 185.1 -10.06 C 185.1 -12.58 183.52 -14 180.72 -14 L 175.58 -14 L 175.56 -13.9 C 176.26 -13.5 176.58 -13.06 176.58 -12.4 Z M 178.78 -6.3 L 178.78 -13.8 L 180.52 -13.8 C 182.28 -13.8 182.76 -12.76 182.76 -10.06 C 182.76 -7.3 182.22 -6.3 180.52 -6.3 Z M 198.7 -12.4 L 198.7 -1.6 C 198.7 -0.94 198.38 -0.5 197.68 -0.1 L 197.7 0 L 207.04 0 L 207.04 -2.2 L 206.9 -2.24 C 206.3 -0.84 205.64 -0.2 204.64 -0.2 L 200.9 -0.2 L 200.9 -7.1 L 202.64 -7.1 C 203.64 -7.1 204.3 -6.62 204.9 -5.58 L 205.04 -5.6 L 205.04 -8.8 L 204.9 -8.84 C 204.3 -7.78 203.64 -7.3 202.64 -7.3 L 200.9 -7.3 L 200.9 -13.8 L 204.64 -13.8 C 205.64 -13.8 206.3 -13.16 206.9 -11.76 L 207.04 -11.8 L 207.04 -14 L 197.7 -14 L 197.68 -13.9 C 198.38 -13.5 198.7 -13.06 198.7 -12.4 Z M 244.78 -14 L 240.96 -2.84 L 236.78 -14 L 233.78 -14 L 233.76 -13.9 C 234.46 -13.5 234.78 -13.06 234.78 -12.4 L 234.78 -1.6 C 234.78 -0.94 234.46 -0.5 233.76 -0.1 L 233.78 0 L 235.98 0 L 236 -0.1 C 235.3 -0.5 234.98 -0.94 234.98 -1.6 L 234.98 -12.92 L 239.78 0 L 240.18 0 L 244.78 -13.42 L 244.78 -1.6 C 244.78 -0.94 244.46 -0.5 243.76 -0.1 L 243.78 0 L 247.98 0 L 248 -0.1 C 247.3 -0.5 246.98 -0.94 246.98 -1.6 L 246.98 -12.4 C 246.98 -13.06 247.3 -13.5 248 -13.9 L 247.98 -14 Z M 260.54 -12.4 L 260.54 -1.6 C 260.54 -0.94 260.22 -0.5 259.52 -0.1 L 259.54 0 L 268.88 0 L 268.88 -2.2 L 268.74 -2.24 C 268.14 -0.84 267.48 -0.2 266.48 -0.2 L 262.74 -0.2 L 262.74 -7.1 L 264.48 -7.1 C 265.48 -7.1 266.14 -6.62 266.74 -5.58 L 266.88 -5.6 L 266.88 -8.8 L 266.74 -8.84 C 266.14 -7.78 265.48 -7.3 264.48 -7.3 L 262.74 -7.3 L 262.74 -13.8 L 266.48 -13.8 C 267.48 -13.8 268.14 -13.16 268.74 -11.76 L 268.88 -11.8 L 268.88 -14 L 259.54 -14 L 259.52 -13.9 C 260.22 -13.5 260.54 -13.06 260.54 -12.4 Z M 286.22 -14 L 281.94 -1.52 C 281.72 -0.88 281.1 -0.5 280.4 -0.1 L 280.42 0 L 282.62 0 L 282.64 -0.1 C 281.94 -0.5 281.92 -0.88 282.14 -1.52 L 283.36 -5.1 L 287.72 -5.1 L 289.06 -1.5 C 289.3 -0.88 289.3 -0.5 288.6 -0.1 L 288.62 0 L 292.82 0 L 292.84 -0.1 C 292.14 -0.5 291.5 -0.88 291.26 -1.5 L 286.62 -14 Z M 283.44 -5.3 L 285.44 -11.16 L 287.64 -5.3 Z M 305.38 -12.4 L 305.38 -1.6 C 305.38 -0.94 305.06 -0.5 304.36 -0.1 L 304.38 0 L 306.58 0 L 306.6 -0.1 C 305.9 -0.5 305.58 -0.94 305.58 -1.6 L 305.58 -10.88 L 313.78 0 L 313.98 0 L 313.98 -12.4 C 313.98 -13.06 314.3 -13.5 315 -13.9 L 314.98 -14 L 312.78 -14 L 312.76 -13.9 C 313.46 -13.5 313.78 -13.06 313.78 -12.4 L 313.78 -3.46 L 305.84 -14 L 304.38 -14 L 304.36 -13.9 C 305.06 -13.5 305.38 -13.06 305.38 -12.4 Z M 337 -14 L 326.52 -14 L 326.52 -11.8 L 326.68 -11.76 C 327.28 -13.16 327.94 -13.8 328.92 -13.8 L 330.66 -13.8 L 330.66 -1.6 C 330.66 -0.94 330.34 -0.5 329.64 -0.1 L 329.66 0 L 333.86 0 L 333.88 -0.1 C 333.18 -0.5 332.86 -0.94 332.86 -1.6 L 332.86 -13.8 L 334.6 -13.8 C 335.6 -13.8 336.26 -13.16 336.86 -11.76 L 337 -11.8 Z M 374.2 -14 L 363.72 -14 L 363.72 -11.8 L 363.88 -11.76 C 364.48 -13.16 365.14 -13.8 366.12 -13.8 L 367.86 -13.8 L 367.86 -1.6 C 367.86 -0.94 367.54 -0.5 366.84 -0.1 L 366.86 0 L 371.06 0 L 371.08 -0.1 C 370.38 -0.5 370.06 -0.94 370.06 -1.6 L 370.06 -13.8 L 371.8 -13.8 C 372.8 -13.8 373.46 -13.16 374.06 -11.76 L 374.2 -11.8 Z M 391.22 0.2 C 394.56 0.2 396.72 -2.8 396.72 -7 C 396.72 -11.38 394.44 -14.2 391.22 -14.2 C 387.88 -14.2 385.72 -11.2 385.72 -7 C 385.72 -2.62 388 0.2 391.22 0.2 Z M 388.32 -7 C 388.32 -12.26 389.04 -14 391.22 -14 C 393.4 -14 394.12 -12.26 394.12 -7 C 394.12 -1.76 393.4 0 391.22 0 C 389.04 0 388.32 -1.76 388.32 -7 Z M 428.94 0.2 C 431.06 0.2 432.52 -1 432.98 -4.26 L 432.78 -4.26 C 432.32 -1.12 430.98 0 428.94 0 C 426.76 0 426.04 -1.76 426.04 -7 C 426.04 -12.26 426.76 -14 428.94 -14 C 430.3 -14 431.42 -13.44 432 -12.44 C 432.34 -11.86 432.24 -11.54 432.04 -11.66 C 431.92 -11.72 431.8 -11.74 431.68 -11.74 C 431.18 -11.74 430.8 -11.36 430.8 -10.88 C 430.8 -10.38 431.18 -10 431.68 -10 C 432.16 -10 432.54 -10.38 432.54 -11.08 C 432.54 -13.08 430.92 -14.2 428.94 -14.2 C 425.6 -14.2 423.44 -11.2 423.44 -7 C 423.44 -2.62 425.72 0.2 428.94 0.2 Z M 450 0.2 C 453.34 0.2 455.5 -2.8 455.5 -7 C 455.5 -11.38 453.22 -14.2 450 -14.2 C 446.66 -14.2 444.5 -11.2 444.5 -7 C 444.5 -2.62 446.78 0.2 450 0.2 Z M 447.1 -7 C 447.1 -12.26 447.82 -14 450 -14 C 452.18 -14 452.9 -12.26 452.9 -7 C 452.9 -1.76 452.18 0 450 0 C 447.82 0 447.1 -1.76 447.1 -7 Z M 478.04 -14 L 474.22 -2.84 L 470.04 -14 L 467.04 -14 L 467.02 -13.9 C 467.72 -13.5 468.04 -13.06 468.04 -12.4 L 468.04 -1.6 C 468.04 -0.94 467.72 -0.5 467.02 -0.1 L 467.04 0 L 469.24 0 L 469.26 -0.1 C 468.56 -0.5 468.24 -0.94 468.24 -1.6 L 468.24 -12.92 L 473.04 0 L 473.44 0 L 478.04 -13.42 L 478.04 -1.6 C 478.04 -0.94 477.72 -0.5 477.02 -0.1 L 477.04 0 L 481.24 0 L 481.26 -0.1 C 480.56 -0.5 480.24 -0.94 480.24 -1.6 L 480.24 -12.4 C 480.24 -13.06 480.56 -13.5 481.26 -13.9 L 481.24 -14 Z M 493.8 -12.4 L 493.8 -1.6 C 493.8 -0.94 493.48 -0.5 492.78 -0.1 L 492.8 0 L 502.14 0 L 502.14 -2.2 L 502 -2.24 C 501.4 -0.84 500.74 -0.2 499.74 -0.2 L 496 -0.2 L 496 -7.1 L 497.74 -7.1 C 498.74 -7.1 499.4 -6.62 500 -5.58 L 500.14 -5.6 L 500.14 -8.8 L 500 -8.84 C 499.4 -7.78 498.74 -7.3 497.74 -7.3 L 496 -7.3 L 496 -13.8 L 499.74 -13.8 C 500.74 -13.8 501.4 -13.16 502 -11.76 L 502.14 -11.8 L 502.14 -14 L 492.8 -14 L 492.78 -13.9 C 493.48 -13.5 493.8 -13.06 493.8 -12.4 Z M 539.34 -14 L 528.86 -14 L 528.86 -11.8 L 529.02 -11.76 C 529.62 -13.16 530.28 -13.8 531.26 -13.8 L 533 -13.8 L 533 -1.6 C 533 -0.94 532.68 -0.5 531.98 -0.1 L 532 0 L 536.2 0 L 536.22 -0.1 C 535.52 -0.5 535.2 -0.94 535.2 -1.6 L 535.2 -13.8 L 536.94 -13.8 C 537.94 -13.8 538.6 -13.16 539.2 -11.76 L 539.34 -11.8 Z M 551.88 -12.4 L 551.88 -1.6 C 551.88 -0.94 551.56 -0.5 550.86 -0.1 L 550.88 0 L 555.08 0 L 555.1 -0.1 C 554.4 -0.5 554.08 -0.94 554.08 -1.6 L 554.08 -6.1 L 555.46 -6.1 L 557.58 -1.46 C 557.86 -0.86 557.92 -0.5 557.22 -0.1 L 557.24 0 L 561.44 0 L 561.46 -0.1 C 560.76 -0.5 560.06 -0.86 559.78 -1.46 L 557.6 -6.28 C 559.44 -6.76 560.4 -8.12 560.4 -10.06 C 560.4 -12.58 558.82 -14 556.02 -14 L 550.88 -14 L 550.86 -13.9 C 551.56 -13.5 551.88 -13.06 551.88 -12.4 Z M 554.08 -6.3 L 554.08 -13.8 L 555.82 -13.8 C 557.58 -13.8 558.06 -12.76 558.06 -10.06 C 558.06 -7.3 557.52 -6.3 555.82 -6.3 Z M 578.3 0.2 C 580.84 0.2 582.6 -1.66 582.6 -4.1 L 582.6 -12.4 C 582.6 -13.06 582.92 -13.5 583.62 -13.9 L 583.6 -14 L 581.4 -14 L 581.38 -13.9 C 582.08 -13.5 582.4 -13.06 582.4 -12.4 L 582.4 -4.1 C 582.4 -2.24 581.08 -1 579.3 -1 C 577.44 -1 576.2 -2.32 576.2 -4.1 L 576.2 -12.4 C 576.2 -13.06 576.52 -13.5 577.22 -13.9 L 577.2 -14 L 573 -14 L 572.98 -13.9 C 573.68 -13.5 574 -13.06 574 -12.4 L 574 -4.1 C 574 -1.54 575.84 0.2 578.3 0.2 Z M 596.16 -12.4 L 596.16 -1.6 C 596.16 -0.94 595.84 -0.5 595.14 -0.1 L 595.16 0 L 604.5 0 L 604.5 -2.2 L 604.36 -2.24 C 603.76 -0.84 603.1 -0.2 602.1 -0.2 L 598.36 -0.2 L 598.36 -7.1 L 600.1 -7.1 C 601.1 -7.1 601.76 -6.62 602.36 -5.58 L 602.5 -5.6 L 602.5 -8.8 L 602.36 -8.84 C 601.76 -7.78 601.1 -7.3 600.1 -7.3 L 598.36 -7.3 L 598.36 -13.8 L 602.1 -13.8 C 603.1 -13.8 603.76 -13.16 604.36 -11.76 L 604.5 -11.8 L 604.5 -14 L 595.16 -14 L 595.14 -13.9 C 595.84 -13.5 596.16 -13.06 596.16 -12.4 Z" stroke-linecap="round" />
</g>
</g>
</g>
</svg>